<?xml version="1.0" encoding="utf-8"?>
<!-- Generator: Adobe Illustrator 23.0.0, SVG Export Plug-In . SVG Version: 6.00 Build 0)  -->
<svg version="1.1" id="Layer_1" xmlns="http://www.w3.org/2000/svg" xmlns:xlink="http://www.w3.org/1999/xlink" x="0px" y="0px"
	 viewBox="0 0 250 250" style="enable-background:new 0 0 250 250;" xml:space="preserve">
<style type="text/css">
	.st0{fill:#231F20;}
	.st1{fill:#F05A28;}
	.st2{fill:#FFF100;}
	.st3{fill:#00ADEE;}
</style>
<g id="Logo_Symbol_1_">
	<path class="st0" d="M44.9,249.5h160.2c24.5,0,44.4-19.9,44.4-44.4V44.9c0-24.5-19.9-44.4-44.4-44.4H44.9
		C20.4,0.5,0.5,20.4,0.5,44.9v160.2C0.5,229.6,20.4,249.5,44.9,249.5z"/>
	<rect x="41.2" y="41.8" class="st1" width="33.2" height="33.2"/>
	<rect x="41.3" y="98.6" class="st2" width="33.2" height="46.5"/>
	<rect x="41.1" y="162.2" class="st3" width="16.6" height="46.5"/>
	<rect x="175.5" y="185.5" class="st1" width="33.2" height="23.2"/>
	<rect x="187.3" y="101" class="st2" width="21.4" height="12.5"/>
	<rect x="177.9" y="135.5" class="st2" width="30.8" height="25.2"/>
	<rect x="96.3" y="109.4" class="st1" width="25.4" height="41.3"/>
	<rect x="138" y="93.6" class="st3" width="19.9" height="31.5"/>
	<rect x="79.2" y="185.7" class="st2" width="49.8" height="23.2"/>
	<rect x="148" y="200.1" class="st1" width="14.8" height="8.7"/>
	<rect x="108.4" y="41.3" class="st2" width="33.2" height="25.7"/>
	<rect x="175.5" y="41.3" class="st1" width="33.2" height="46.5"/>
</g>
</svg>
